<?xml version="1.0" standalone="no"?>
<!DOCTYPE svg PUBLIC "-//W3C//DTD SVG 20010904//EN"
 "http://www.w3.org/TR/2001/REC-SVG-20010904/DTD/svg10.dtd">
<svg version="1.0" xmlns="http://www.w3.org/2000/svg"
 width="1200.000000pt" height="1200.000000pt" viewBox="0 0 1200.000000 1200.000000"
 preserveAspectRatio="xMidYMid meet">

<g transform="translate(0.000000,1200.000000) scale(0.100000,-0.100000)"
fill="#000000" stroke="none">
<path d="M4099 8144 c-18 -19 -33 -38 -31 -42 1 -4 -2 -7 -7 -7 -13 0 -26 -14
-26 -28 0 -7 -5 -12 -12 -12 -14 0 -28 -13 -28 -28 -1 -7 -6 -11 -12 -10 -12
3 -12 -15 0 -34 5 -7 5 -13 1 -13 -4 0 1 -9 11 -20 10 -11 14 -20 10 -20 -4 0
-1 -8 8 -18 10 -10 14 -22 10 -25 -6 -7 -29 19 -33 38 -1 6 -7 16 -13 24 -6 7
-12 20 -13 28 -2 8 -6 18 -10 21 -4 4 -4 -1 -1 -10 6 -17 -7 -35 -16 -21 -2 5
-2 3 -1 -4 4 -14 -12 -27 -19 -16 -2 5 -2 3 -1 -4 4 -14 -12 -27 -19 -16 -2 5
-2 3 -1 -4 4 -17 -13 -26 -19 -11 -3 7 -4 -2 -3 -19 0 -18 -3 -32 -9 -30 -5 1
-9 10 -9 20 1 13 -2 15 -12 6 -7 -6 -12 -16 -11 -22 1 -7 -3 -11 -10 -10 -13
3 -12 -13 3 -42 6 -11 10 -41 9 -67 0 -27 3 -44 8 -41 5 3 7 0 5 -8 -3 -8 -11
-13 -17 -11 -7 1 -10 -2 -6 -8 3 -5 2 -10 -3 -10 -7 0 -28 51 -38 95 -14 63 1
75 -389 -315 l-370 -370 371 0 370 0 24 40 c14 22 29 40 33 40 5 0 6 4 3 9 -3
5 1 12 10 15 8 3 12 11 8 17 -4 8 -3 9 4 5 7 -4 12 -3 12 2 0 5 8 18 18 30 52
64 55 68 55 107 0 30 -3 36 -13 30 -5 -3 -10 3 -10 14 0 11 -8 28 -17 37 -17
17 -17 18 0 11 10 -4 16 -3 13 2 -3 5 1 14 9 21 13 11 15 10 12 -6 -1 -11 -7
-26 -12 -34 -7 -13 -6 -13 7 -2 20 16 32 1 23 -27 -7 -22 10 -37 21 -20 4 7 3
9 -3 6 -13 -8 -9 55 4 75 4 7 9 22 9 33 3 41 4 46 12 41 11 -7 9 -57 -3 -76
-12 -19 -14 -59 -4 -66 4 -2 6 4 4 16 -2 11 1 22 6 25 5 4 7 10 4 14 -2 5 4
16 15 26 22 20 28 8 8 -15 -11 -12 -10 -12 5 -1 9 8 16 21 15 30 -2 9 3 15 11
13 10 -2 12 1 5 10 -13 17 -12 38 1 37 6 0 9 -6 7 -14 -1 -7 2 -16 8 -20 6 -4
7 1 3 11 -5 13 -3 15 8 9 11 -6 11 -5 2 5 -6 7 -9 20 -6 29 4 14 3 14 -6 1
-12 -16 -12 -16 -16 20 -5 36 -14 72 -19 78 -3 2 -1 12 4 21 5 10 5 23 0 31
-5 8 -4 22 3 34 6 12 11 24 12 29 0 4 3 7 8 7 4 0 9 0 12 0 3 0 0 -10 -7 -22
-16 -30 -18 -47 -7 -54 5 -3 6 -11 2 -17 -11 -18 -12 -36 -3 -42 5 -3 7 -12 4
-19 -3 -8 0 -17 5 -21 6 -3 8 -11 5 -17 -4 -7 -2 -8 4 -4 11 6 17 -13 13 -37
-1 -5 3 -6 8 -2 6 3 8 12 4 20 -3 9 0 22 6 29 8 9 8 16 2 20 -6 4 -7 14 -4 24
4 10 -2 7 -15 -8 -26 -31 -29 -14 -3 19 12 16 20 20 25 12 15 -23 16 -63 4
-80 -12 -14 -11 -15 5 -2 10 8 17 21 15 30 -1 9 2 16 7 16 6 0 9 -4 7 -8 -1
-5 2 -6 8 -2 6 3 8 10 5 15 -3 5 -1 11 4 15 9 5 7 42 -2 51 -1 2 -8 -6 -15
-16 -7 -11 -9 -19 -5 -18 5 2 9 -1 11 -7 3 -13 -21 -14 -30 -1 -4 6 -1 17 7
26 7 8 15 20 17 25 2 6 7 9 12 7 5 -2 4 3 -3 12 -7 8 -8 17 -3 20 11 6 26 -22
23 -41 -3 -20 16 -23 33 -4 9 10 15 29 12 42 -2 13 1 30 7 37 7 9 3 20 -15 40
-21 24 -24 35 -23 100 1 40 -2 67 -6 61 -4 -7 -9 -8 -13 -1 -3 5 1 15 8 22 21
17 33 -13 31 -78 -1 -48 0 -51 15 -37 15 14 19 13 35 -5 11 -12 20 -30 22 -42
3 -17 1 -19 -12 -8 -8 7 -13 16 -10 20 3 4 -2 13 -10 20 -8 7 -16 10 -16 6 -1
-3 -3 -10 -4 -16 -1 -5 -3 -13 -4 -17 -1 -5 -6 -1 -11 7 -5 8 -10 10 -10 4 0
-6 11 -21 25 -34 13 -12 22 -26 20 -31 -3 -4 3 -6 12 -5 10 2 19 8 19 14 1 7
3 15 4 20 2 4 4 18 4 32 1 16 7 24 16 22 8 -2 11 0 7 5 -5 4 -13 9 -18 9 -5 1
-11 3 -14 4 -3 1 -10 3 -17 4 -6 0 -13 7 -16 15 -3 9 0 11 9 6 8 -5 11 -5 7 0
-4 4 -3 14 3 21 7 8 7 14 -1 19 -6 4 -9 3 -8 -2 3 -7 -5 -13 -17 -13 -3 0 -1
10 5 23 10 20 10 20 -3 5 -8 -10 -17 -15 -21 -11 -3 3 0 13 7 22 12 14 11 21
-9 50 -13 19 -24 29 -24 24 0 -6 9 -22 20 -35 10 -14 17 -28 13 -32 -3 -3 -16
9 -28 27 -16 22 -20 37 -14 49 6 10 5 19 -1 23 -6 4 -10 3 -9 -2 4 -21 -2 -31
-16 -29 -9 1 -14 6 -13 12 2 5 8 8 13 6 6 -2 7 0 3 4 -4 4 -4 12 1 18 6 7 4
18 -5 30 -8 11 -14 14 -14 7 0 -7 -4 -10 -9 -7 -4 3 -7 17 -6 31 2 14 2 25 1
25 -1 0 -18 -16 -37 -36z m21 -9 c-11 -13 -11 -16 1 -13 9 2 14 -5 13 -20 -1
-21 9 -22 12 -1 3 19 4 20 14 14 11 -7 -48 -82 -61 -78 -3 1 -5 -8 -5 -20 1
-12 -6 -34 -17 -49 -10 -16 -15 -33 -10 -40 4 -7 8 -19 9 -26 2 -8 6 -21 10
-30 10 -26 12 -52 2 -58 -4 -3 -8 -10 -8 -17 0 -6 6 -3 13 7 11 15 15 15 23 4
18 -22 24 -47 14 -53 -6 -4 -11 -1 -11 4 -1 6 -2 15 -3 20 0 5 -5 13 -9 18 -5
4 -8 3 -7 -2 5 -24 -1 -27 -20 -10 -13 12 -17 22 -11 29 8 10 8 44 1 54 -2 1
-4 7 -5 12 -1 6 -3 11 -5 13 -1 1 -3 10 -5 20 -2 11 -6 21 -9 25 -3 3 1 13 10
23 9 10 17 31 19 47 3 36 13 54 26 47 5 -3 6 2 2 11 -4 10 -2 15 3 11 6 -3 10
4 11 16 0 12 -1 16 -4 9 -4 -10 -8 -10 -19 -1 -13 10 -11 15 7 35 24 26 40 24
19 -1z m-36 -73 c-9 -14 -18 -38 -19 -54 -3 -28 -24 -63 -33 -53 -3 2 1 12 8
20 10 12 10 19 2 27 -19 19 -14 32 6 17 16 -13 16 -13 -1 7 -9 11 -14 24 -10
28 5 4 9 12 9 17 3 19 4 20 14 14 7 -4 6 -14 -1 -28 -9 -17 -9 -19 0 -11 7 6
14 20 16 30 2 11 4 20 4 22 1 2 6 0 12 -3 6 -5 4 -16 -7 -33z m54 -30 c-10
-12 -10 -14 0 -8 6 4 12 3 12 -2 0 -17 -13 -22 -29 -9 -14 10 -14 10 -4 -4 7
-9 9 -20 5 -24 -4 -5 -1 -5 6 -1 6 4 12 3 12 -2 0 -17 -13 -22 -29 -10 -9 7
-13 8 -8 3 4 -4 -1 -17 -10 -28 -10 -11 -12 -17 -5 -13 12 7 14 1 15 -40 0
-11 6 -21 13 -21 7 0 12 3 11 6 -1 3 2 7 8 9 5 1 10 -8 10 -20 0 -13 3 -27 6
-33 3 -5 5 -22 4 -37 -1 -15 1 -25 5 -23 4 2 6 17 5 32 -1 15 3 34 8 41 7 9 7
12 -3 10 -7 -2 -15 3 -18 11 -2 8 0 11 6 7 6 -3 14 -1 18 5 4 7 3 9 -3 6 -6
-4 -15 -1 -21 6 -12 14 10 51 23 39 5 -4 5 -1 0 7 -7 12 -10 11 -20 -2 -13
-18 -29 -11 -17 7 4 6 7 22 8 36 0 14 6 24 13 22 9 -2 9 3 1 17 -12 24 3 37
20 16 10 -12 10 -18 -1 -31 -17 -21 -20 -44 -6 -41 7 1 11 -20 12 -60 1 -51 5
-67 24 -87 17 -18 21 -29 14 -38 -6 -7 -9 -25 -6 -39 2 -15 -3 -32 -12 -39
-18 -15 -20 0 -2 19 8 10 9 12 0 7 -14 -8 -36 27 -25 40 4 5 -3 0 -16 -10 -12
-11 -20 -21 -17 -24 3 -3 0 -11 -6 -19 -6 -7 -8 -13 -4 -13 4 0 2 -7 -5 -15
-17 -20 -33 -9 -20 14 5 10 7 20 5 23 -3 3 4 13 14 22 22 20 19 39 -12 73 -11
13 -17 26 -14 30 4 3 2 11 -3 18 -5 6 -11 20 -13 31 -1 10 -6 24 -10 31 -4 7
0 24 10 40 10 14 18 31 18 37 0 18 28 55 37 49 5 -2 3 -12 -4 -21z m-114 -3
c-3 -5 0 -16 6 -24 10 -12 10 -18 1 -29 -10 -12 -9 -20 4 -40 10 -14 14 -26
10 -26 -4 0 -2 -7 5 -15 7 -8 9 -15 6 -15 -4 0 -4 -6 1 -12 12 -20 13 -41 1
-55 -6 -7 -7 -13 -3 -13 4 0 2 -7 -5 -15 -7 -8 -10 -15 -6 -15 4 0 0 -10 -8
-23 -10 -14 -12 -27 -6 -37 5 -8 5 -21 0 -31 -5 -9 -7 -19 -4 -21 7 -7 15 -48
17 -83 2 -24 -2 -30 -18 -30 -11 1 -19 7 -17 14 1 6 -4 22 -13 34 -8 12 -15
16 -15 10 0 -7 5 -15 10 -18 6 -3 10 -11 10 -17 0 -7 -5 -7 -14 1 -8 6 -18 10
-24 9 -5 -2 -10 2 -10 7 0 6 3 9 7 8 4 -1 8 8 8 20 2 17 0 19 -7 7 -9 -14 -14
-7 -11 14 1 4 -3 14 -9 20 -7 9 -3 19 14 35 13 13 23 30 21 39 -1 9 3 23 9 31
6 8 11 22 11 33 0 10 4 18 10 18 13 0 13 -31 0 -50 -6 -8 -11 -22 -10 -30 1
-8 -10 -28 -24 -44 -14 -16 -20 -25 -12 -21 11 6 13 4 8 -8 -4 -10 -2 -16 6
-14 7 1 11 -4 9 -11 -1 -6 1 -11 5 -10 5 2 8 0 8 -3 0 -4 8 -16 18 -26 9 -11
14 -23 10 -28 -5 -4 -2 -5 5 -1 10 6 10 11 1 22 -6 8 -8 14 -3 14 4 0 3 5 -3
11 -6 6 -10 17 -9 23 2 6 1 8 -1 3 -3 -4 -9 -4 -14 -1 -6 3 -5 12 3 21 16 20
20 50 7 58 -6 5 -7 11 0 18 5 7 11 17 13 22 1 6 8 9 13 7 6 -2 4 2 -2 9 -7 7
-13 17 -13 22 0 4 6 5 13 1 6 -4 9 -3 4 1 -4 5 1 17 10 27 12 13 13 18 4 16
-7 -2 -16 3 -19 11 -3 8 0 11 7 7 7 -5 9 -1 4 10 -5 14 -8 13 -18 -6 -7 -13
-15 -18 -18 -13 -4 6 2 18 13 28 19 17 19 19 4 37 -10 10 -13 18 -9 18 4 0 1
8 -9 19 -14 15 -14 20 -3 29 8 7 18 8 23 4 4 -4 2 1 -5 11 -14 18 -22 22 -20
10 3 -17 -2 -24 -12 -18 -7 5 -4 14 7 26 9 10 14 19 10 19 -4 0 -4 5 -1 10 4
6 11 8 16 4 5 -3 7 -10 3 -15z m-62 -114 c-9 -13 -21 -21 -25 -18 -5 3 -4 10
2 16 6 6 11 16 11 22 -1 15 -24 -28 -26 -47 -3 -36 -4 -39 -13 -34 -10 7 -33
-18 -29 -30 2 -5 -1 -10 -7 -11 -13 -4 -14 19 -1 36 6 7 11 21 11 30 0 9 7 15
15 13 8 -2 12 0 7 4 -4 4 5 20 20 36 20 21 30 25 39 17 11 -9 10 -15 -4 -34z
m169 32 c-7 -7 -7 -15 -1 -22 7 -9 5 -17 -7 -26 -15 -12 -16 -12 -11 2 3 9 2
22 -2 29 -11 17 -5 27 15 27 11 0 12 -4 6 -10z m108 -38 c-13 -26 -17 -24 -15
10 0 22 4 27 13 19 9 -7 10 -16 2 -29z m-235 -40 c-3 -5 -10 -7 -15 -3 -5 3
-7 9 -4 14 3 5 2 11 -3 14 -5 3 -8 -9 -7 -27 1 -18 -3 -40 -7 -50 -6 -12 -5
-16 4 -15 15 4 18 -22 5 -39 -10 -14 -30 -7 -21 8 3 5 10 6 16 3 7 -4 8 -2 4
5 -4 6 -11 9 -16 6 -4 -3 -10 2 -14 10 -3 8 -2 17 3 19 4 3 7 20 6 38 -1 18 3
42 8 52 9 19 10 19 28 -3 11 -13 16 -27 13 -32z m-58 -19 c-2 -34 -15 -52 -17
-24 -1 10 0 24 1 29 1 6 3 15 3 22 0 7 4 10 8 7 4 -2 6 -18 5 -34z m302 7 c-1
-2 4 -12 12 -21 25 -31 21 -51 -6 -25 -16 15 -21 26 -14 34 5 7 8 15 5 18 -3
4 -2 5 1 3 3 -2 4 -6 2 -9z m-393 -27 c-2 -11 1 -22 6 -25 5 -4 6 -11 3 -17
-5 -7 -2 -8 6 -3 10 6 11 4 6 -11 -5 -10 -8 -25 -7 -31 3 -37 5 -42 15 -40 6
1 10 -4 8 -11 -1 -8 2 -11 9 -6 9 5 10 2 6 -10 -4 -9 -3 -15 2 -12 12 8 34
-21 27 -33 -4 -5 -2 -13 4 -16 8 -5 7 -11 -1 -21 -10 -12 -14 -12 -21 -2 -7
10 -8 10 -7 -2 3 -27 -1 -41 -9 -36 -15 9 -7 61 9 58 8 -2 11 0 7 4 -4 4 -4
12 2 18 6 8 2 12 -13 13 -12 0 -16 -1 -9 -4 6 -3 9 -9 6 -14 -3 -6 -11 -5 -20
2 -9 8 -11 16 -5 23 6 8 6 17 -1 26 -8 13 -9 12 -5 -2 3 -9 3 -19 -1 -23 -8
-8 -11 -55 -3 -52 3 1 7 -2 9 -8 1 -5 -2 -10 -7 -10 -5 0 -12 -3 -15 -7 -3 -5
-3 -6 1 -3 3 3 12 0 20 -6 9 -8 10 -15 3 -24 -8 -9 -8 -15 0 -20 6 -3 7 -12 4
-18 -4 -7 -4 -9 1 -5 13 12 35 -25 23 -39 -11 -14 -28 -8 -28 8 0 6 6 7 13 4
6 -4 5 -1 -4 7 -19 16 -44 85 -42 116 1 12 -2 20 -6 17 -20 -12 -20 40 0 61
14 15 18 27 13 36 -5 7 -9 32 -9 55 -1 22 -6 48 -13 55 -9 11 -9 17 0 26 15
15 28 6 23 -18z m165 4 c0 4 5 4 10 1 6 -4 7 -11 4 -17 -4 -6 -10 -6 -17 1 -7
7 -15 7 -23 1 -8 -8 -11 -4 -11 15 0 25 0 25 18 9 11 -9 19 -14 19 -10z m-91
-24 c11 -22 19 -40 16 -40 -3 0 -7 0 -10 0 -3 0 -5 3 -6 8 0 4 -7 14 -15 23
-8 9 -11 19 -7 24 5 4 2 5 -4 1 -14 -7 -18 6 -6 17 9 10 9 10 32 -33z m-14
-30 c-3 -5 -1 -11 4 -15 6 -3 8 -12 5 -20 -4 -8 -10 -12 -15 -9 -5 3 -7 9 -4
14 3 5 2 11 -3 14 -4 2 -8 -6 -8 -19 0 -13 5 -23 11 -22 5 1 9 -4 7 -11 -1 -8
2 -11 7 -8 5 4 12 0 14 -6 4 -9 6 -10 6 -1 1 6 -4 15 -9 18 -7 4 -6 13 1 26 8
16 14 18 24 9 17 -14 14 -34 -9 -59 -19 -20 -19 -20 -47 15 -22 28 -26 40 -19
55 6 10 10 22 9 26 -3 20 2 24 16 13 8 -7 13 -16 10 -20z m197 -25 c4 -5 4
-13 1 -18 -3 -5 -9 -3 -14 4 -6 10 -9 10 -9 2 0 -6 5 -15 10 -18 7 -4 6 -14
-2 -28 -6 -12 -11 -24 -11 -27 1 -13 -10 -29 -17 -25 -11 7 -7 30 9 49 8 9 11
19 7 23 -3 3 -6 1 -6 -6 0 -7 -4 -10 -9 -7 -10 6 -9 20 3 48 8 18 26 20 38 3z
m-105 -62 c-1 -10 -6 -24 -11 -32 -7 -11 -10 -11 -17 0 -5 8 -2 20 8 31 20 22
24 22 20 1z m97 -94 c-3 -5 -10 -7 -15 -3 -5 3 -7 10 -3 15 3 5 10 7 15 3 5
-3 7 -10 3 -15z m-141 -32 c8 8 47 -26 47 -40 0 -6 -11 0 -24 12 -17 16 -26
19 -31 11 -6 -9 -10 -9 -16 1 -6 10 -9 10 -9 2 0 -6 5 -15 10 -18 6 -4 8 -11
4 -16 -3 -6 -11 -3 -19 8 -17 23 -1 60 19 44 7 -6 16 -8 19 -4z m-40 -71 c-3
-6 3 -3 15 8 12 10 20 21 19 25 -1 3 3 6 8 6 6 0 8 -4 6 -10 -2 -5 -5 -21 -6
-35 -2 -34 -15 -61 -26 -54 -5 3 -7 10 -3 15 3 5 -8 27 -25 48 -17 21 -27 41
-23 45 10 11 43 -34 35 -48z m113 19 c1 -7 -7 -22 -17 -31 -19 -17 -19 -17
-16 2 10 49 28 65 33 29z"/>
<path d="M4116 7843 c-6 -14 -5 -15 5 -6 7 7 10 15 7 18 -3 3 -9 -2 -12 -12z"/>
<path d="M4186 7797 c2 -17 5 -37 6 -44 1 -7 5 -10 10 -7 4 3 3 14 -3 25 -6
11 -8 27 -5 34 3 8 1 17 -3 20 -5 3 -7 -10 -5 -28z"/>
<path d="M3842 7660 c-9 -15 -9 -21 1 -26 6 -4 9 -4 5 1 -4 4 -3 14 4 22 6 7
9 15 7 18 -3 2 -10 -4 -17 -15z"/>
<path d="M3940 7731 c0 -6 4 -13 10 -16 6 -3 7 1 4 9 -7 18 -14 21 -14 7z"/>
<path d="M4280 7921 c0 -6 4 -13 10 -16 6 -3 7 1 4 9 -7 18 -14 21 -14 7z"/>
<path d="M4313 7841 c0 -11 5 -18 9 -15 4 3 5 11 1 19 -7 21 -12 19 -10 -4z"/>
<path d="M3787 7826 c-4 -9 -3 -15 1 -13 4 1 8 -2 9 -8 0 -5 -3 -9 -9 -7 -5 1
-7 -2 -3 -8 3 -6 11 -8 16 -5 12 8 12 -8 -1 -21 -7 -7 -6 -11 3 -11 16 0 17
43 1 71 -10 16 -12 16 -17 2z"/>
<path d="M4243 7751 c0 -11 5 -18 9 -15 4 3 5 11 1 19 -7 21 -12 19 -10 -4z"/>
<path d="M3859 7123 c-13 -16 -12 -17 4 -4 9 7 17 15 17 17 0 8 -8 3 -21 -13z"/>
<path d="M8222 7073 c4 -15 -34 -63 -45 -56 -5 3 -7 2 -4 -4 8 -13 -22 -55
-34 -48 -5 3 -6 0 -4 -7 3 -8 -10 -30 -28 -51 -28 -29 -34 -44 -32 -73 1 -20
6 -39 11 -42 5 -4 10 -18 11 -32 3 -24 2 -24 -12 -6 -8 11 -15 15 -15 9 0 -7
5 -15 10 -18 6 -4 8 -10 5 -15 -3 -4 3 -14 13 -21 15 -13 16 -12 3 4 -9 11
-10 17 -2 17 6 0 11 -4 11 -10 0 -17 2 -25 10 -40 4 -8 10 -28 14 -44 6 -26 5
-28 -8 -17 -9 7 -14 17 -11 21 3 5 1 11 -5 15 -6 4 -8 10 -5 14 2 5 -7 18 -20
31 -13 13 -22 26 -20 31 3 4 1 10 -4 14 -6 3 -8 12 -5 19 3 8 0 17 -5 21 -6 3
-8 11 -5 17 5 7 2 8 -5 3 -9 -5 -10 -10 -2 -18 18 -18 12 -31 -6 -16 -16 13
-17 12 -5 -3 9 -11 10 -18 2 -23 -5 -3 -10 -1 -10 6 0 7 -3 9 -7 6 -3 -4 1
-15 10 -25 10 -10 14 -21 11 -25 -4 -3 -15 4 -26 16 -17 21 -17 20 1 -12 11
-19 17 -39 14 -44 -3 -6 -1 -7 5 -3 7 4 9 -8 7 -36 -4 -55 -4 -56 -15 -38 -5
9 -5 19 0 25 6 8 5 19 -4 30 -8 11 -13 24 -12 30 2 5 1 7 -1 2 -3 -4 -9 -4
-14 -1 -6 4 -6 11 1 19 8 9 8 15 0 20 -6 4 -9 1 -8 -7 2 -7 -3 -12 -11 -10
-12 3 -12 0 -2 -12 8 -10 9 -16 1 -21 -5 -3 -10 -1 -10 6 0 7 -3 9 -7 6 -3 -4
1 -15 10 -25 10 -10 14 -22 10 -27 -5 -4 -2 -4 6 0 11 6 13 4 8 -9 -4 -10 -3
-15 3 -11 10 6 32 -29 23 -38 -3 -4 -1 -12 5 -19 17 -21 18 -24 3 -41 -7 -9
-18 -14 -23 -11 -6 4 -5 10 3 16 11 7 9 8 -4 4 -12 -4 -17 -2 -14 6 2 7 10 12
17 10 10 -2 11 0 3 10 -6 7 -9 21 -8 31 2 9 -1 15 -5 12 -5 -3 -14 4 -20 15
-6 11 -15 19 -19 17 -5 -1 -9 3 -9 8 0 6 5 9 11 7 6 -2 4 4 -3 13 -13 16 -25
12 -25 -8 -1 -7 -6 -11 -12 -10 -7 2 -10 -7 -7 -24 5 -24 3 -25 -13 -13 -14
11 -15 11 -6 1 13 -15 6 -44 -8 -35 -5 3 -6 11 -3 17 4 7 3 8 -1 4 -13 -11
-15 -38 -2 -30 7 4 8 0 2 -13 -4 -10 -9 -34 -10 -53 -1 -23 -7 -35 -18 -37
-10 -1 -18 2 -18 7 -5 33 -2 44 11 41 8 -2 12 0 8 4 -4 4 -3 13 3 20 7 8 7 14
-1 19 -10 6 -11 5 -14 -17 -1 -7 -8 -12 -15 -10 -7 1 -10 -2 -7 -7 4 -5 2 -12
-4 -16 -6 -4 -2 -18 12 -38 23 -32 30 -64 16 -73 -4 -3 -4 -14 2 -24 7 -13 7
-21 0 -25 -5 -3 -11 -4 -11 -1 -1 3 -2 9 -3 14 -1 4 -5 12 -9 19 -4 6 -3 14 2
18 15 9 9 43 -14 72 -16 19 -22 22 -22 10 0 -9 4 -14 9 -11 4 3 8 1 8 -4 0
-17 -13 -22 -29 -9 -14 10 -14 10 -4 -4 7 -9 9 -20 5 -24 -4 -5 -1 -4 7 0 11
6 13 4 7 -11 -7 -16 -12 -33 -15 -54 -1 -3 -5 2 -11 10 -5 9 -5 19 1 26 7 8 6
14 -1 19 -6 3 -7 12 -3 18 3 7 -3 3 -15 -7 -19 -17 -20 -21 -8 -35 19 -21 24
-39 11 -40 -5 -1 -10 2 -10 7 0 4 -4 13 -9 20 -6 10 -11 10 -22 1 -7 -6 -11
-15 -8 -20 3 -5 7 -25 9 -44 2 -24 -1 -33 -8 -28 -7 4 -6 -1 2 -10 7 -9 14
-17 16 -17 3 0 -2 83 -6 97 -2 6 1 11 6 12 6 1 10 -3 10 -8 0 -5 3 -13 7 -17
4 -4 3 -13 -3 -20 -6 -8 -7 -14 0 -18 6 -4 8 -13 5 -21 -3 -7 -1 -22 5 -33 7
-13 7 -23 -2 -32 -8 -8 -8 -11 -1 -7 15 9 32 -13 29 -35 -2 -10 2 -16 8 -15 7
1 11 -8 11 -20 -1 -12 3 -21 9 -20 5 1 11 -6 12 -16 6 -33 12 -28 12 8 0 20
-4 31 -7 24 -5 -7 -10 -8 -14 -1 -3 5 1 15 8 22 12 9 17 8 24 -7 9 -19 9 -63
-1 -79 -3 -6 -1 -16 4 -24 9 -13 10 -13 6 0 -6 20 11 52 23 45 27 -16 29 -43
8 -71 -13 -16 -15 -23 -7 -17 9 7 19 9 23 5 4 -4 7 -2 6 3 -5 22 1 36 11 29 6
-3 4 5 -5 18 -15 22 -15 27 -1 38 8 7 13 16 10 20 -3 4 2 13 10 20 8 7 15 18
15 24 0 6 -4 5 -9 -3 -5 -8 -11 -9 -15 -3 -3 5 1 15 8 21 23 20 39 -19 18 -42
-12 -13 -12 -18 -3 -15 7 2 16 -3 18 -10 3 -7 -1 -10 -10 -7 -7 3 -20 -1 -27
-10 -11 -13 -10 -19 5 -33 10 -9 15 -12 12 -6 -4 6 2 19 13 29 17 16 21 52 9
92 -2 6 1 11 6 12 6 1 11 -3 11 -9 1 -5 3 -13 4 -17 1 -5 1 -12 0 -18 -1 -5 2
-7 6 -3 4 4 13 3 20 -3 9 -7 12 -6 9 8 -4 25 6 38 17 22 8 -11 9 -11 6 -1 -2
8 -7 13 -12 12 -14 -3 -26 23 -17 35 5 5 7 18 6 27 -2 9 3 22 11 29 8 6 14 19
13 28 0 11 -3 9 -9 -6 -5 -13 -11 -23 -13 -23 -10 0 0 79 11 93 9 10 10 17 2
22 -5 3 -10 3 -10 -2 0 -4 -4 -2 -9 5 -12 20 -6 67 8 64 7 -1 10 2 7 7 -4 5
-2 13 4 16 8 5 8 11 0 20 -7 9 -6 16 7 26 15 12 16 12 10 -4 -5 -12 -3 -16 5
-11 8 5 9 2 4 -12 -5 -10 -10 -30 -11 -44 -4 -36 -4 -36 -15 -20 -7 12 -9 10
-7 -7 0 -12 3 -20 6 -18 2 3 10 -3 17 -13 10 -14 10 -20 -4 -35 -12 -13 -13
-18 -3 -15 7 2 16 -3 18 -10 3 -8 -2 -10 -14 -6 -15 5 -15 4 -3 -5 19 -13 20
-32 2 -54 -9 -9 -12 -20 -9 -23 3 -4 1 -16 -5 -28 -6 -11 -7 -18 -3 -14 4 4
13 0 20 -9 9 -13 14 -13 20 -3 5 9 4 11 -3 6 -7 -4 -12 -3 -12 2 0 17 13 22
29 9 14 -10 14 -10 3 5 -9 11 -10 18 -2 23 6 4 10 12 9 18 -3 26 2 35 19 33 9
-2 17 -8 17 -14 0 -6 3 -13 7 -16 5 -3 6 -3 4 0 -2 3 2 17 9 31 7 14 11 33 7
42 -5 14 -4 14 11 2 14 -11 15 -17 5 -30 -8 -10 -5 -9 10 3 21 18 22 31 1 31
-5 0 -9 5 -8 10 1 6 5 9 10 8 4 -2 5 5 2 14 -5 12 -3 14 8 8 8 -4 11 -4 6 0
-4 5 1 17 10 27 10 11 13 19 8 18 -21 -5 -25 1 -16 18 6 12 5 23 -4 35 -12 17
-13 17 -20 0 -5 -10 -9 -21 -9 -25 -1 -5 -4 -8 -8 -8 -5 0 -11 0 -14 0 -4 0 1
11 10 25 12 18 14 30 7 44 -7 12 -6 22 2 31 9 10 9 11 0 6 -7 -4 -13 -4 -14 1
0 4 -2 18 -5 31 -3 16 0 21 8 16 7 -5 8 -3 4 5 -5 7 -10 10 -14 7 -6 -6 -31
24 -32 38 0 5 8 2 18 -6 9 -9 22 -14 28 -11 7 2 12 -2 11 -9 -2 -20 25 -108
32 -108 4 0 8 -8 9 -17 3 -39 9 -59 20 -80 7 -12 12 -30 12 -40 0 -12 28 10
84 66 47 47 82 89 79 94 -3 6 -2 7 3 4 8 -5 496 468 558 541 l19 22 -376 0
c-208 0 -376 -3 -375 -7z m-167 -342 c-2 -5 7 -18 20 -31 13 -13 22 -26 20
-31 -3 -4 -1 -11 5 -14 8 -5 8 -11 0 -20 -9 -10 -7 -20 5 -38 8 -14 18 -34 20
-46 3 -11 7 -30 9 -41 3 -11 8 -24 11 -30 3 -5 -1 -20 -10 -33 -14 -22 -14
-26 0 -37 8 -7 13 -15 11 -19 -3 -4 0 -13 5 -21 7 -11 8 -8 5 12 -2 14 -1 29
2 33 4 4 8 11 8 16 3 19 4 20 14 14 7 -4 7 -12 0 -25 -7 -13 -7 -21 0 -25 6
-4 -2 -22 -20 -45 -17 -21 -30 -42 -29 -47 4 -22 -2 -44 -11 -38 -5 3 -7 13
-4 23 5 15 4 15 -6 -1 -11 -17 -30 -15 -30 4 0 6 5 7 10 4 6 -4 9 -1 8 7 -2 7
2 12 9 11 8 -2 10 4 6 14 -5 12 -3 14 8 8 8 -4 11 -5 7 0 -4 4 -3 14 3 21 6 8
7 14 0 18 -6 4 -7 14 -4 24 4 10 -2 7 -15 -8 -12 -14 -21 -20 -22 -14 0 6 3
14 8 18 4 4 8 12 8 17 1 5 3 11 4 14 1 3 3 13 4 23 1 9 5 22 9 29 4 6 3 14 -2
18 -6 3 -8 12 -5 19 3 8 1 17 -5 20 -6 4 -8 14 -5 24 5 13 4 14 -4 3 -6 -8
-12 -9 -16 -3 -3 6 -1 14 4 17 8 5 7 12 -2 23 -16 19 -17 49 -4 72 7 12 7 13
-5 2 -8 -7 -14 -26 -14 -42 0 -17 -4 -30 -10 -30 -5 0 -9 15 -8 33 0 17 -4 38
-9 45 -7 8 -7 16 1 26 8 10 9 16 1 21 -6 3 -8 11 -4 16 3 5 10 7 15 3 5 -3 7
-9 4 -13z m-41 -112 c-3 -5 -14 1 -24 13 -10 13 -16 27 -12 32 3 5 13 -1 24
-13 10 -13 15 -27 12 -32z m-79 -19 c-3 -5 -1 -11 5 -15 5 -3 10 -11 10 -17 0
-6 -7 -5 -17 3 -17 13 -17 12 -2 -6 17 -22 19 -45 4 -44 -5 0 -9 6 -7 14 1 7
-2 16 -8 20 -6 4 -7 -1 -3 -11 5 -13 3 -15 -8 -9 -12 7 -12 6 -1 -7 8 -10 9
-19 3 -22 -5 -3 -11 -3 -14 1 -2 5 -2 3 -1 -4 2 -7 -1 -15 -7 -19 -7 -4 -6
-10 0 -18 6 -7 7 -17 3 -21 -4 -5 -1 -5 6 -1 6 4 12 3 12 -2 0 -17 -13 -22
-29 -10 -9 7 -13 9 -9 4 4 -5 3 -18 -3 -29 -7 -11 -7 -17 -1 -13 10 6 28 -10
34 -31 2 -6 -1 -11 -7 -12 -5 -1 -10 4 -10 9 0 18 -18 16 -21 -3 -1 -9 2 -15
6 -12 5 3 11 1 14 -4 4 -5 2 -12 -3 -15 -13 -8 -42 35 -33 48 10 14 9 38 -2
55 -6 9 -5 12 2 7 14 -9 25 11 27 48 1 17 10 47 21 66 10 19 19 40 20 45 1 6
2 14 3 18 0 5 6 5 11 2 6 -4 8 -10 5 -15z m50 -45 c1 -5 -6 -21 -15 -35 -8
-13 -10 -21 -4 -17 6 3 21 -4 33 -17 21 -22 21 -23 2 -40 -28 -25 -17 -107 12
-89 7 4 6 -1 -2 -10 -13 -16 -14 -16 -26 0 -7 10 -11 21 -9 25 8 13 -17 20
-31 8 -15 -12 -22 0 -8 14 10 10 12 35 3 41 -5 3 -7 -3 -5 -12 1 -10 -2 -24
-8 -31 -7 -9 -7 -16 1 -24 11 -11 5 -41 -8 -33 -4 2 -6 -6 -6 -18 1 -12 0 -26
-3 -32 -3 -5 -6 -13 -6 -17 0 -5 -4 -7 -10 -5 -5 1 -8 7 -7 12 11 30 10 45 -1
39 -7 -4 -2 4 11 18 l22 25 -20 25 c-21 27 -26 43 -11 34 5 -3 14 1 21 9 10
13 10 19 -4 34 -15 16 -15 19 2 34 10 10 22 14 25 10 10 -9 9 -25 -1 -19 -4 2
-9 -5 -9 -16 l-2 -21 15 21 c8 11 14 25 13 29 -1 4 0 10 1 13 7 18 7 71 -1 76
-5 3 -7 10 -3 15 6 11 38 -27 39 -46z m99 24 c-3 -5 -10 -7 -15 -3 -5 3 -7 10
-3 15 3 5 10 7 15 3 5 -3 7 -10 3 -15z m22 -66 c-3 -7 -1 -15 5 -18 5 -4 6
-12 2 -18 -4 -7 -8 -21 -8 -32 0 -11 -6 -20 -13 -20 -7 0 -17 -6 -21 -14 -7
-11 -10 -11 -17 0 -12 19 -12 31 -1 52 6 13 3 26 -8 43 -8 13 -13 24 -9 24 4
0 1 7 -6 15 -10 12 -10 18 0 30 12 14 17 12 47 -17 18 -18 31 -38 29 -45z
m-290 -110 c2 -10 -2 -23 -7 -29 -7 -8 -6 -14 1 -19 6 -3 8 -10 5 -14 -2 -5 7
-18 20 -31 13 -13 22 -27 19 -31 -2 -4 -20 8 -38 28 -32 36 -33 36 -34 12 0
-42 -2 -50 -11 -44 -6 3 -8 15 -6 27 3 11 1 17 -3 14 -4 -4 -8 -12 -8 -17 -3
-19 -4 -20 -15 -13 -7 4 0 17 17 35 26 28 31 37 39 84 2 11 4 22 4 24 2 9 15
-11 17 -26z m274 -8 c-6 -7 -10 -17 -9 -21 1 -5 1 -11 -1 -14 -6 -16 -9 -53
-4 -48 3 3 7 14 9 25 1 10 8 17 14 16 6 -2 10 0 10 5 -3 16 2 23 11 17 6 -4
-1 -21 -18 -43 -27 -34 -31 -47 -33 -94 0 -9 -9 -24 -19 -33 -18 -16 -19 -16
-18 6 1 13 6 30 12 37 14 19 17 70 5 78 -6 4 -4 13 6 24 9 10 15 21 14 26 -4
16 13 44 23 38 5 -3 5 -11 -2 -19z m-33 -18 c3 -21 2 -21 -12 -3 -8 10 -12 23
-9 28 8 13 17 2 21 -25z m-303 2 c-3 -5 -10 -7 -15 -3 -5 3 -7 10 -3 15 3 5
10 7 15 3 5 -3 7 -10 3 -15z m214 -6 c-1 -5 4 -19 12 -33 15 -27 21 -138 8
-146 -4 -3 -8 1 -9 8 -1 7 -2 29 -4 48 -1 19 -6 44 -10 54 -7 15 -5 17 6 11
11 -7 12 -6 2 7 -7 8 -9 19 -5 23 4 5 1 5 -6 1 -7 -5 -11 -10 -8 -13 3 -3 1
-15 -5 -25 -7 -14 -14 -17 -21 -10 -7 7 -4 19 7 36 10 14 14 26 11 26 -4 0 -4
5 -1 10 7 12 26 14 23 3z m-89 -94 c-5 -11 -7 -19 -3 -19 3 0 1 -6 -5 -14 -8
-10 -9 -16 -1 -21 6 -3 7 -11 4 -17 -4 -6 -10 -5 -15 3 -5 8 -9 9 -9 3 0 -6
12 -21 26 -35 14 -13 24 -19 22 -12 -3 10 8 18 15 10 5 -6 -41 -56 -47 -50 -3
3 -1 11 4 18 7 8 2 19 -15 35 -23 21 -23 24 -9 51 8 16 12 29 8 29 -4 0 -1 6
5 14 9 10 8 16 -4 26 -8 7 -12 17 -9 22 3 5 14 2 25 -8 14 -13 16 -21 8 -35z
m-44 -49 c-13 -25 -12 -29 10 -50 17 -16 22 -27 15 -35 -6 -7 -6 -15 0 -21 7
-7 5 -17 -5 -30 -14 -18 -14 -18 -10 3 2 12 -6 34 -17 48 -11 15 -21 36 -22
48 -1 12 -7 22 -13 22 -7 0 -13 5 -12 10 1 6 5 9 10 7 6 -1 6 5 0 16 -5 10 -6
24 -1 32 4 7 6 20 3 29 -2 9 9 1 26 -18 28 -32 29 -36 16 -61z m130 15 c2 -25
8 -52 14 -59 7 -8 14 -24 16 -36 3 -18 2 -20 -10 -10 -8 7 -13 16 -10 20 3 4
-2 13 -10 20 -8 7 -12 17 -8 24 3 6 3 8 -2 4 -13 -12 -37 13 -25 27 8 10 12
22 19 64 1 2 4 1 7 -2 4 -4 8 -27 9 -52z m-32 17 c-10 -27 -23 -40 -39 -38
-16 2 -20 21 -5 21 11 0 26 13 27 26 3 19 4 20 14 14 5 -3 6 -13 3 -23z m-162
-26 c-8 -10 -9 -16 -1 -21 6 -3 7 -12 3 -18 -4 -7 2 -5 12 3 16 13 18 13 13 0
-3 -8 -1 -23 3 -32 12 -22 -5 -32 -21 -13 -7 8 -9 15 -5 15 5 0 0 9 -10 20
-10 11 -15 20 -11 20 4 0 2 9 -4 21 -7 11 -9 28 -5 37 5 14 7 14 22 -1 13 -13
14 -19 4 -31z m163 -35 c9 -7 13 -18 10 -23 -3 -5 -17 1 -31 14 -14 13 -24 19
-23 13 4 -19 0 -26 -10 -20 -8 5 -8 11 0 20 13 16 32 14 54 -4z m-35 -87 c-6
-8 -8 -14 -4 -14 4 0 2 -7 -5 -15 -21 -25 -31 -5 -13 25 9 16 21 27 25 24 5
-3 4 -12 -3 -20z m31 -49 c-7 -9 -15 -13 -17 -11 -7 7 7 26 19 26 6 0 6 -6 -2
-15z"/>
<path d="M8056 6683 c-6 -14 -5 -15 5 -6 7 7 10 15 7 18 -3 3 -9 -2 -12 -12z"/>
<path d="M7954 6472 c-9 -14 -8 -22 2 -36 7 -11 11 -23 7 -29 -3 -6 -1 -7 5
-3 8 5 9 13 3 24 -5 9 -7 27 -5 40 5 27 2 28 -12 4z"/>
<path d="M7984 6465 c0 -13 3 -22 7 -19 8 4 6 30 -2 38 -3 3 -5 -5 -5 -19z"/>
<path d="M7906 6403 c-6 -14 -5 -15 5 -6 7 7 10 15 7 18 -3 3 -9 -2 -12 -12z"/>
<path d="M8045 6550 c8 -9 12 -20 8 -25 -5 -4 -2 -4 6 0 11 6 13 4 8 -9 -4 -9
-3 -15 3 -11 5 3 9 -3 9 -12 1 -39 5 -52 13 -47 5 3 6 10 2 15 -5 9 -12 40
-16 76 -1 7 -6 11 -12 10 -6 -1 -10 3 -9 9 1 6 -5 11 -13 11 -12 0 -12 -3 1
-17z"/>
<path d="M8056 6433 c-6 -14 -5 -15 5 -6 7 7 10 15 7 18 -3 3 -9 -2 -12 -12z"/>
<path d="M7809 6288 c-6 -21 -5 -39 2 -44 5 -3 6 -10 3 -16 -4 -6 -2 -8 4 -5
9 6 9 27 2 47 -1 3 -2 8 -1 13 1 6 -8 11 -10 5z"/>
<path d="M7824 6176 c1 -8 5 -18 8 -22 4 -3 5 1 4 10 -1 8 -5 18 -8 22 -4 3
-5 -1 -4 -10z"/>
<path d="M8060 6801 c0 -6 4 -13 10 -16 6 -3 7 1 4 9 -7 18 -14 21 -14 7z"/>
<path d="M8160 6501 c0 -6 4 -13 10 -16 6 -3 7 1 4 9 -7 18 -14 21 -14 7z"/>
<path d="M8209 6375 c-1 -3 -2 -8 -3 -12 -1 -5 -5 -14 -10 -21 -5 -8 -4 -18 3
-25 9 -9 10 -7 5 7 -5 12 -4 17 2 13 6 -3 10 5 10 19 0 21 -4 32 -7 19z"/>
<path d="M7679 6328 c-6 -20 -6 -39 0 -42 4 -3 7 6 7 20 0 20 -4 32 -7 22z"/>
<path d="M8093 6236 c3 -7 0 -20 -6 -27 -10 -11 -9 -11 5 0 15 11 15 41 1 41
-3 0 -3 -6 0 -14z"/>
<path d="M7854 6043 c2 -10 -2 -25 -8 -33 -9 -13 -9 -13 6 -2 16 12 18 35 6
48 -4 3 -5 -2 -4 -13z"/>
<path d="M5790 3060 l0 -410 60 0 60 0 0 410 0 410 -60 0 -60 0 0 -410z"/>
<path d="M3370 3058 c-89 -211 -165 -389 -167 -395 -4 -10 11 -13 53 -13 l59
0 36 88 35 87 144 0 144 0 35 -87 34 -88 69 0 c38 0 67 3 65 8 -2 4 -78 181
-168 395 -90 213 -167 387 -170 387 -3 0 -79 -172 -169 -382z m214 -3 c25 -63
46 -117 46 -120 0 -3 -43 -5 -95 -5 -74 0 -95 3 -95 14 0 20 86 226 95 226 1
0 24 -52 49 -115z"/>
<path d="M7892 3304 c-46 -32 -15 -104 45 -104 28 0 63 33 63 60 0 27 -35 60
-63 60 -12 0 -33 -7 -45 -16z"/>
<path d="M4698 3193 l-3 -98 -37 -3 c-37 -3 -38 -4 -38 -42 0 -38 1 -39 38
-42 l37 -3 3 -177 2 -178 55 0 55 0 0 180 0 180 60 0 60 0 0 40 0 39 -57 3
-58 3 -3 98 -3 97 -54 0 -54 0 -3 -97z"/>
<path d="M6228 3193 l-3 -98 -37 -3 c-37 -3 -38 -4 -38 -42 0 -38 1 -39 38
-42 l37 -3 3 -177 2 -178 55 0 55 0 0 180 0 180 60 0 60 0 0 40 0 39 -57 3
-58 3 -3 98 -3 97 -54 0 -54 0 -3 -97z"/>
<path d="M4164 3096 c-47 -21 -76 -68 -76 -123 0 -73 30 -102 144 -144 46 -16
59 -26 64 -46 5 -20 2 -31 -16 -45 -31 -25 -68 -23 -124 7 l-48 25 -19 -22
c-27 -34 -20 -50 36 -78 39 -19 65 -25 116 -24 109 0 169 53 169 148 0 62 -32
98 -112 125 -67 23 -98 45 -98 71 0 44 84 59 136 25 14 -9 27 -15 28 -13 20
31 36 59 36 63 0 3 -19 15 -42 25 -51 23 -148 26 -194 6z"/>
<path d="M6734 3096 c-47 -21 -76 -68 -76 -123 0 -73 30 -102 144 -144 46 -16
59 -26 64 -46 5 -20 2 -31 -16 -45 -31 -25 -68 -23 -124 7 l-48 25 -19 -22
c-27 -34 -20 -50 36 -78 39 -19 65 -25 116 -24 109 0 169 53 169 148 0 62 -32
98 -112 125 -67 23 -98 45 -98 71 0 44 84 59 136 25 14 -9 27 -15 28 -13 20
31 36 59 36 63 0 3 -19 15 -42 25 -51 23 -148 26 -194 6z"/>
<path d="M8380 3103 c-124 -51 -186 -207 -131 -328 61 -135 239 -177 348 -82
l36 31 -5 -62 c-3 -47 -10 -68 -28 -87 -51 -54 -161 -60 -226 -10 l-36 28 -36
-36 c-42 -42 -39 -49 40 -93 48 -26 62 -29 143 -29 73 0 98 4 130 22 49 26
100 78 114 116 7 17 11 124 11 272 l0 243 -27 3 c-46 7 -75 -2 -80 -21 -5 -18
-8 -17 -46 8 -34 23 -53 27 -116 29 -42 1 -83 0 -91 -4z m174 -97 c54 -23 76
-59 76 -129 0 -55 -3 -62 -38 -97 -50 -51 -104 -60 -167 -30 -33 16 -52 34
-66 63 -64 124 62 248 195 193z"/>
<path d="M5108 3092 c-13 -2 2 -41 83 -208 54 -113 99 -211 99 -217 0 -7 -20
-57 -45 -111 -25 -55 -45 -103 -45 -108 0 -4 24 -8 53 -8 l52 0 141 325 c78
179 138 325 133 326 -5 1 -20 1 -34 1 -14 0 -33 0 -44 -1 -14 -1 -34 -36 -82
-146 -35 -79 -66 -141 -70 -137 -4 4 -32 66 -64 137 -31 72 -60 133 -64 137
-7 8 -87 15 -113 10z"/>
<path d="M7188 3092 c-12 -2 15 -58 109 -225 68 -122 125 -223 127 -224 1 -1
55 97 120 218 65 121 115 223 113 226 -10 9 -107 7 -116 -3 -5 -5 -31 -60 -57
-121 -27 -62 -51 -113 -54 -113 -3 0 -32 54 -65 120 -33 66 -62 120 -65 121
-18 3 -99 3 -112 1z"/>
<path d="M7893 3092 l-23 -3 0 -220 0 -219 60 0 60 0 0 220 c0 169 -3 220 -12
221 -7 0 -24 1 -38 2 -14 1 -35 1 -47 -1z"/>
<path d="M3413 1838 c-33 -16 -45 -59 -47 -161 -2 -87 -3 -92 -24 -95 -29 -4
-28 -30 1 -34 21 -3 22 -6 22 -125 0 -93 3 -123 12 -123 10 0 13 31 13 125 l0
125 50 0 c37 0 50 4 50 14 0 11 -14 16 -47 18 l-48 3 -3 50 c-5 71 7 152 24
170 9 8 29 15 46 15 19 0 28 4 26 13 -6 16 -47 19 -75 5z"/>
<path d="M8040 1576 c0 -240 2 -276 15 -276 13 0 15 34 13 272 -2 206 -6 272
-15 276 -10 3 -13 -56 -13 -272z"/>
<path d="M2493 1796 c-45 -20 -75 -72 -69 -115 8 -49 45 -83 136 -120 92 -37
120 -66 120 -123 0 -52 -23 -84 -76 -104 -37 -14 -51 -15 -91 -5 -27 7 -58 19
-71 27 -22 14 -42 12 -42 -5 0 -5 22 -18 49 -30 97 -41 203 -23 247 44 22 34
22 113 0 148 -17 24 -42 39 -180 103 -68 31 -79 112 -20 150 28 19 100 20 150
4 25 -9 39 -9 47 -1 28 28 -145 52 -200 27z"/>
<path d="M3670 1641 c0 -58 -1 -60 -27 -63 -34 -4 -33 -22 2 -26 l25 -3 0
-125 c0 -104 2 -124 15 -124 13 0 15 21 15 125 l0 125 45 0 c33 0 45 4 45 15
0 11 -12 15 -45 15 l-45 0 0 60 c0 47 -3 60 -15 60 -12 0 -15 -13 -15 -59z"/>
<path d="M8300 1641 c0 -58 -1 -60 -27 -63 -34 -4 -33 -22 2 -26 l25 -3 0
-125 c0 -104 2 -124 15 -124 13 0 15 21 15 125 l0 125 45 0 c33 0 45 4 45 15
0 11 -12 15 -45 15 l-45 0 0 60 c0 47 -3 60 -15 60 -12 0 -15 -13 -15 -59z"/>
<path d="M9510 1641 c0 -58 -1 -60 -27 -63 -34 -4 -33 -22 2 -26 l25 -3 0
-125 c0 -104 2 -124 15 -124 13 0 15 21 15 125 l0 125 45 0 c33 0 45 4 45 15
0 11 -12 15 -45 15 l-45 0 0 60 c0 47 -3 60 -15 60 -12 0 -15 -13 -15 -59z"/>
<path d="M2960 1572 c-98 -49 -107 -195 -15 -252 39 -24 113 -27 156 -5 71 37
94 154 42 216 -49 57 -119 74 -183 41z m146 -46 c29 -29 34 -41 34 -80 0 -53
-20 -90 -61 -112 -102 -52 -208 61 -154 166 21 42 53 60 103 60 37 0 50 -6 78
-34z"/>
<path d="M4566 1580 c-80 -25 -118 -118 -82 -205 31 -74 138 -99 210 -50 20
14 39 25 41 25 3 0 5 -11 5 -25 0 -16 6 -25 15 -25 13 0 15 22 15 140 0 118
-2 140 -15 140 -10 0 -15 -10 -15 -32 l0 -32 -27 26 c-52 48 -85 56 -147 38z
m115 -37 c66 -39 75 -135 18 -189 -25 -24 -39 -29 -80 -29 -46 0 -54 4 -86 39
-33 36 -35 42 -30 89 3 41 10 56 36 79 37 33 96 38 142 11z"/>
<path d="M5070 1579 c-14 -6 -37 -22 -52 -36 l-28 -27 0 32 c0 18 -4 32 -10
32 -6 0 -10 -53 -10 -140 0 -118 2 -140 15 -140 12 0 15 17 15 94 0 106 14
135 75 157 19 7 35 19 35 26 0 15 -6 15 -40 2z"/>
<path d="M5330 1571 c-47 -25 -71 -60 -77 -113 -10 -91 49 -158 139 -158 45 0
98 16 98 30 0 16 -14 17 -47 3 -22 -9 -49 -12 -68 -9 -35 7 -91 54 -78 67 4 4
59 27 120 51 l113 44 -18 34 c-35 64 -115 87 -182 51z m135 -41 c16 -16 27
-31 24 -33 -6 -6 -193 -77 -201 -77 -5 0 -8 16 -8 36 0 28 8 44 34 70 28 28
41 34 78 34 36 0 50 -6 73 -30z"/>
<path d="M6057 1575 c-48 -17 -67 -33 -84 -72 -28 -68 -5 -150 51 -184 37 -23
123 -25 152 -5 26 19 10 32 -21 18 -102 -47 -202 67 -150 168 27 51 106 76
157 49 13 -7 24 -7 30 -1 6 6 -1 13 -19 20 -51 19 -78 21 -116 7z"/>
<path d="M6430 1572 c-98 -49 -107 -195 -15 -252 39 -24 113 -27 156 -5 71 37
94 154 42 216 -49 57 -119 74 -183 41z m146 -46 c29 -29 34 -41 34 -80 0 -53
-20 -90 -61 -112 -102 -52 -208 61 -154 166 21 42 53 60 103 60 37 0 50 -6 78
-34z"/>
<path d="M6910 1574 c-19 -8 -43 -25 -52 -37 l-18 -22 0 33 c0 17 -4 32 -10
32 -6 0 -10 -53 -10 -140 0 -118 2 -140 15 -140 12 0 15 18 15 98 0 77 4 101
18 118 36 46 106 59 135 26 14 -15 17 -40 17 -130 0 -93 3 -112 15 -112 12 0
15 19 15 114 0 63 -3 122 -6 131 -8 19 -55 45 -81 45 -10 -1 -34 -8 -53 -16z"/>
<path d="M7294 1578 c-35 -9 -54 -33 -54 -69 0 -32 15 -46 84 -79 42 -21 52
-30 54 -55 6 -50 -51 -72 -110 -41 -15 8 -30 11 -33 6 -10 -17 40 -40 87 -40
64 0 90 25 86 82 -3 37 -7 43 -43 60 -91 43 -90 43 -90 73 0 38 40 55 87 37
36 -13 46 -9 29 12 -15 18 -59 24 -97 14z"/>
<path d="M8646 1580 c-80 -25 -118 -118 -82 -205 31 -74 138 -99 210 -50 20
14 39 25 41 25 3 0 5 -11 5 -25 0 -16 6 -25 15 -25 13 0 15 22 15 140 0 118
-2 140 -15 140 -10 0 -15 -10 -15 -32 l0 -32 -27 26 c-52 48 -85 56 -147 38z
m115 -37 c66 -39 75 -135 18 -189 -25 -24 -39 -29 -80 -29 -46 0 -54 4 -86 39
-33 36 -35 42 -30 89 3 41 10 56 36 79 37 33 96 38 142 11z"/>
<path d="M9140 1574 c-19 -8 -43 -25 -52 -37 l-18 -22 0 33 c0 17 -4 32 -10
32 -6 0 -10 -53 -10 -140 0 -118 2 -140 15 -140 12 0 15 18 15 98 0 77 4 101
18 118 36 46 106 59 135 26 14 -15 17 -40 17 -130 0 -93 3 -112 15 -112 12 0
15 19 15 114 0 63 -3 122 -6 131 -8 19 -55 45 -81 45 -10 -1 -34 -8 -53 -16z"/>
<path d="M3910 1573 c0 -5 23 -60 51 -123 28 -63 55 -126 61 -140 9 -23 13
-17 49 69 21 52 41 96 43 99 4 3 20 -30 76 -157 l16 -34 62 140 c34 78 62 144
62 147 0 3 -6 6 -13 6 -7 0 -35 -52 -62 -116 l-49 -117 -18 39 c-10 22 -34 74
-53 117 -19 42 -40 77 -46 77 -7 0 -8 -7 -4 -17 4 -10 9 -27 12 -38 5 -23 -48
-157 -62 -157 -5 0 -29 46 -54 103 -26 56 -52 104 -59 107 -6 2 -12 0 -12 -5z"/>
<path d="M7600 1464 c0 -63 4 -124 10 -134 24 -44 119 -44 166 1 l24 22 0 -26
c0 -17 5 -27 15 -27 13 0 15 22 15 140 0 114 -3 140 -14 140 -11 0 -15 -22
-18 -101 -3 -99 -3 -101 -36 -130 -36 -33 -76 -37 -110 -13 -21 14 -22 23 -22
130 0 95 -3 114 -15 114 -12 0 -15 -20 -15 -116z"/>
</g>
</svg>
